<svg width="78" height="79" viewBox="0 0 78 79" fill="none" xmlns="http://www.w3.org/2000/svg">
<g id="Group 3">
<path id="Vector" d="M0.962891 32.684C0.962891 32.684 4.24354 42.7091 3.16862 47.1152C3.16862 47.1152 -1.42665 52.1221 3.53624 60.2326L3.1245 69H38.9999H74.8768L74.4636 60.2326C79.4265 52.1221 74.8312 47.1152 74.8312 47.1152C73.7563 42.7091 77.037 32.684 77.037 32.684L74.9239 30.9825C75.3827 30.0804 76.5385 24.5271 76.5385 24.5271L75.1386 6.02939C70.9433 7.91521 68.2376 1 68.2376 1H38.9999H9.76227C9.76227 1 7.05805 7.91521 2.86129 6.02939L1.46286 24.5271C1.46286 24.5271 2.61719 30.0804 3.07598 30.9825L0.962891 32.684Z" fill="#1C1C22"/>
<path id="Vector_2" d="M39.0001 50C48.8225 50 56.8149 55.8302 56.8149 62.9984C56.8149 70.1666 48.8225 76 39.0001 76C29.1777 76 21.1853 70.1666 21.1853 62.9984C21.1853 55.8302 29.1777 50 39.0001 50Z" fill="#1C1C22"/>
<path id="Vector_3" d="M54.3759 73.6068C55.5917 72.5509 56.6389 71.3703 57.4709 70.0907H59.8423H60.7548L63.1482 68.0299H60.9203C61.4242 66.4021 61.6878 64.9468 61.7684 63.6592C62.5608 64.8365 64.2482 66.6066 66.7851 65.5474C66.208 65.7248 63.8527 66.1002 61.7318 61.2549L61.7274 61.2773C61.3041 57.4385 59.2989 55.6924 59.2989 55.6924C61.3773 60.1511 60.8984 64.1065 60.2217 66.4963C60.2085 66.5139 59.7881 67.1513 58.9386 67.1673C59.4512 65.7503 59.7427 64.2598 59.7427 62.7183C59.7427 53.7387 50.4373 46.4365 39.0007 46.4365C27.5641 46.4365 18.2587 53.7387 18.2587 62.7183C18.2587 64.2598 18.5501 65.7503 19.0628 67.1673C18.2132 67.1513 17.7914 66.5139 17.7797 66.4963C17.103 64.1065 16.624 60.1511 18.7025 55.6924C18.7025 55.6924 16.6958 57.4385 16.2739 61.2773L16.2681 61.2549C14.1501 66.1002 11.7933 65.7248 11.2177 65.5474C13.7531 66.6066 15.442 64.8365 16.2329 63.6592C16.3164 64.9468 16.5757 66.4021 17.081 68.0299H14.8532L17.2451 70.0907H18.1342H20.5304C21.3624 71.3671 22.4009 72.5413 23.6108 73.5956C23.539 73.6404 17.5263 77.4392 12.9139 74.1803C12.9139 74.1803 14.2731 77.2044 18.6966 77.0207L18.6717 77.0271C18.7362 77.0207 18.7874 77.0239 18.8504 77.0175C18.8856 77.0175 18.9192 77.0143 18.9529 77.0111C24.0311 76.4712 26.4011 78.8227 26.4011 78.8227C25.6599 76.9216 24.2113 76.2459 23.0381 76.0207C23.5478 75.8226 24.0766 75.5957 24.6346 75.3289L24.6405 75.3194C25.8196 75.6373 27.4103 76.3306 28.3492 77.877L35.9467 78.8227L35.8867 78.7955C36.9046 78.9153 37.9387 79 39.0007 79C40.0626 79 41.0967 78.9153 42.1147 78.7955L42.0546 78.8227L49.6507 77.877C50.5852 76.345 52.1525 75.6516 53.3316 75.3289C53.8896 75.5957 54.4184 75.8226 54.9281 76.0207C53.7549 76.2459 52.3077 76.9216 51.5636 78.8227C51.5636 78.8227 53.935 76.4712 59.0147 77.0111C59.0469 77.0143 59.0821 77.0175 59.1158 77.0175C59.1788 77.0239 59.23 77.0207 59.293 77.0271L59.2711 77.0207C63.6901 77.2044 65.0523 74.1803 65.0523 74.1803C60.5249 77.3817 54.6572 73.7858 54.3759 73.6068ZM23.1347 70.0907C22.8696 69.7696 22.6177 69.4389 22.3833 69.1019C22.3614 69.0667 22.3379 69.0284 22.316 68.9916C22.1021 68.6801 21.9 68.3622 21.7198 68.0331C20.8219 66.3893 20.3181 64.5985 20.3181 62.7183C20.3181 54.9815 28.7007 48.6842 39.0007 48.6842C49.3006 48.6842 57.6833 54.9815 57.6833 62.7183C57.6833 64.5985 57.1794 66.3925 56.2815 68.0331C56.1014 68.3622 55.8992 68.6801 55.6869 68.9916C55.6634 69.0284 55.6429 69.0667 55.618 69.1019C55.3822 69.4389 55.1317 69.7696 54.8666 70.0907C51.568 74.0797 45.6989 76.7523 39.0007 76.7523C32.3025 76.7523 26.4333 74.0797 23.1347 70.0907ZM71.8531 23.9689C71.3199 26.4259 72.0962 28.5362 73.1508 30.1465C71.5631 39.8753 73.1083 54.6093 73.309 58.643C74.0443 57.6238 74.7137 55.9752 75.074 54.9959C74.9993 52.892 74.948 50.6204 74.9217 48.2656C75.7859 49.812 76.1667 51.4638 76.0246 53.2035C75.865 55.21 75.0564 57.1494 74.0077 58.8826C73.955 58.9673 73.9095 59.044 73.8612 59.1223C73.7177 59.3475 73.5712 59.5712 73.4233 59.7948C73.391 59.8412 73.372 59.8667 73.372 59.8667V59.8699C71.0621 63.2502 68.0653 65.6385 67.8412 65.8174C66.7016 66.4708 65.5767 67.2328 64.4826 68.0299H64.4664L64.2233 68.2201C63.4616 68.784 62.7234 69.3687 62.0145 69.9565L61.8431 70.0907C61.8431 70.0907 59.9551 71.9311 60.5834 73.1515C61.2133 74.3688 64.9937 74.0877 66.8554 71.4646C66.8554 71.4646 64.9952 73.3065 62.9607 72.2761C62.0614 71.8192 62.7571 70.9342 63.8102 70.0907H64.1706H65.9473H76.0305L75.9177 68.9485C75.9118 68.8702 75.7712 67.4037 75.5998 64.9739C75.8708 64.9707 76.1433 64.9771 76.4098 65.0011H76.4128C76.5417 65.0139 76.6588 65.0378 76.779 65.0602C76.9459 65.1305 77.0734 65.2775 76.9122 65.5906C76.5885 66.2184 76.1945 66.49 76.1945 66.49C76.1945 66.49 77.233 66.3733 77.8423 65.2775C78.4517 64.1864 77.1964 63.3189 75.7639 63.4451L75.7668 63.4483C75.6833 63.4483 75.5881 63.4563 75.4988 63.4627C75.4226 62.2917 75.345 60.969 75.2717 59.5169C76.3688 57.651 77.2154 55.5551 77.3941 53.3377C77.6182 50.5836 76.7716 48.0324 74.9085 45.7448C74.9085 45.339 74.9114 44.9269 74.9129 44.5147C74.9129 44.5147 76.2443 37.4535 77.463 33.1322L77.6197 32.5795L77.1686 32.2759C77.1451 32.26 76.0876 31.5283 75.0476 30.3174C75.0476 30.3174 73.955 29.2519 73.5492 27.9659C73.101 26.9147 72.8769 25.7246 73.1508 24.4338C73.1977 24.3204 73.706 23.0104 74.2245 21.3219L74.472 24.3172C74.2127 25.1463 73.9945 26.0297 73.7865 26.9339C74.078 27.5761 74.6185 28.5953 75.2937 29.0602C75.5808 27.5441 75.9074 26.0856 76.3234 24.7805L76.3908 24.5728L75.2014 10.109C75.2176 12.2688 73.8671 16.9671 73.8671 16.9671C73.4189 19.9225 71.8999 23.8204 71.8531 23.9689ZM73.5023 62.0984C73.5346 62.64 73.5697 63.1672 73.6005 63.656C73.0336 63.7279 72.458 63.8445 71.8663 64.0186C72.3994 63.4451 72.9545 62.7965 73.5023 62.0984ZM67.0356 68.0299C69.3074 66.5395 71.6407 65.3973 73.703 65.1289C73.7938 66.343 73.8759 67.3366 73.9359 68.0299H67.0356ZM74.7767 32.1338C75.2571 32.6146 75.698 32.9868 76.007 33.2281C75.1428 36.6435 74.453 37.6151 73.9359 43.5594C73.8861 38.8564 74.0238 37.7043 74.7767 32.1338ZM4.35545 14.3024C3.41363 11.8279 2.96835 6.57372 2.96835 6.57372L3.00497 6.12962L3.60844 5.92355C5.02483 5.4443 9.06162 3.5177 9.06162 1.03199V0H68.9383V1.03199C68.9383 3.5177 72.9765 5.4443 74.3929 5.92355L74.9964 6.12962L75.033 6.57372C75.033 6.57372 74.5877 11.8279 73.6474 14.3024L73.2255 7.66642C71.6641 7.04339 67.8646 5.21904 67.1615 2.06238H10.8398C10.1367 5.21904 6.33723 7.04339 4.77583 7.66642L4.35545 14.3024ZM0.157542 65.2775C0.766869 66.3733 1.80682 66.49 1.80682 66.49C1.80682 66.49 1.41281 66.2184 1.08911 65.5906C0.927985 65.2775 1.05688 65.1305 1.2224 65.0602C1.3425 65.0378 1.46115 65.0139 1.58858 65.0011H1.59151C1.85809 64.9771 2.13053 64.9707 2.4015 64.9739C2.22866 67.4037 2.08952 68.8702 2.08366 68.9485L1.97087 70.0907H12.0306H13.8308H14.1545C15.2091 70.9342 15.9048 71.8192 15.0055 72.2761C12.9695 73.3065 11.1108 71.4646 11.1108 71.4646C12.9724 74.0877 16.7514 74.3688 17.3827 73.1515C18.0126 71.9311 16.1245 70.0907 16.1245 70.0907H16.1494H16.1582L15.9869 69.9565C15.2779 69.3687 14.5397 68.784 13.7781 68.2201L13.5349 68.0299H13.5173C12.4246 67.2328 11.2997 66.4708 10.1602 65.8174C9.93607 65.6385 6.93923 63.2502 4.62935 59.8699V59.8667C4.62935 59.8667 4.60885 59.8412 4.57955 59.7948C4.42869 59.5712 4.28368 59.3475 4.14013 59.1223C4.0918 59.044 4.04639 58.9673 3.99366 58.8826C2.94492 57.1494 2.13639 55.21 1.97673 53.2035C1.83466 51.4638 2.21548 49.812 3.07967 48.2656C3.05331 50.6204 3.00204 52.892 2.92734 54.9959C3.28766 55.9752 3.95705 57.6238 4.69234 58.643C4.89301 54.6093 6.43683 39.8753 4.85053 30.1465C5.90513 28.5362 6.67998 26.4259 6.15121 23.9689C6.10287 23.8204 4.58249 19.9225 4.13428 16.9671C4.13428 16.9671 2.78233 12.2688 2.79991 10.109L1.61202 24.5728L1.67646 24.7805C2.09391 26.0856 2.42055 27.5441 2.71056 29.0602C3.38287 28.5953 3.92336 27.5761 4.21484 26.9339C4.00831 26.0297 3.7886 25.1463 3.52934 24.3172L3.77689 21.3219C4.2954 23.0104 4.80659 24.3204 4.85053 24.4338C5.12443 25.7246 4.90033 26.9147 4.45212 27.9659C4.04639 29.2519 2.95371 30.3174 2.95371 30.3174C1.91522 31.5283 0.856215 32.26 0.832779 32.2759L0.381645 32.5795L0.538369 33.1322C1.75849 37.4535 3.087 44.5147 3.087 44.5147C3.08993 44.9269 3.09285 45.339 3.09285 45.7448C1.22972 48.0324 0.383109 50.5836 0.607212 53.3377C0.785909 55.5551 1.63399 57.651 2.72961 59.5169C2.6549 60.969 2.57873 62.2917 2.50257 63.4627C2.41176 63.4563 2.31801 63.4483 2.23453 63.4483L2.23745 63.4451C0.804949 63.3189 -0.451785 64.1864 0.157542 65.2775ZM4.50046 62.0984C5.0468 62.7965 5.6034 63.4451 6.13509 64.0186C5.54334 63.8445 4.96771 63.7279 4.40086 63.656C4.43162 63.1672 4.46677 62.64 4.50046 62.0984ZM4.29833 65.1289C6.36067 65.3973 8.69398 66.5395 10.9658 68.0299H4.06544C4.12549 67.3366 4.20752 66.343 4.29833 65.1289ZM1.99431 33.2281C2.30337 32.9868 2.74425 32.6146 3.22468 32.1338C3.97755 37.7043 4.11524 38.8564 4.0669 43.5594C3.54985 37.6151 2.85996 36.6435 1.99431 33.2281Z" fill="#3C3C48"/>
</g>
</svg>
