<svg width="85" height="88" viewBox="0 0 85 88" fill="none" xmlns="http://www.w3.org/2000/svg">
<g id="Group 3">
<path id="Vector" d="M1.21194 33.2594C1.21194 33.2594 4.77302 51.2164 3.60621 55.6059C3.60621 55.6059 -1.38184 60.594 4.00526 68.6738L3.55833 77.4081H42.5003H81.4438L80.9953 68.6738C86.3824 60.594 81.3944 55.6059 81.3944 55.6059C80.2275 51.2164 83.7886 33.2594 83.7886 33.2594L81.4949 31.5642C81.9929 30.6656 83.2475 25.1332 83.2475 25.1332L81.728 6.70534C77.1741 8.58404 74.2371 1.69493 74.2371 1.69493H42.5003H10.7635C10.7635 1.69493 7.8281 8.58404 3.27261 6.70534L1.75465 25.1332C1.75465 25.1332 3.00765 30.6656 3.50565 31.5642L1.21194 33.2594Z" fill="#202032"/>
<path id="Vector_2" d="M42.5007 58.0909C53.2446 58.0909 61.9869 63.9888 61.9869 71.2402C61.9869 78.4917 53.2446 84.3927 42.5007 84.3927C31.7569 84.3927 23.0146 78.4917 23.0146 71.2402C23.0146 63.9888 31.7569 58.0909 42.5007 58.0909Z" fill="#202032"/>
<path id="Vector_3" d="M59.2558 82.1205C60.5806 81.0654 61.7219 79.8858 62.6285 78.6073H65.2128H66.2072L68.8153 76.5482H66.3875C66.9366 74.9217 67.2239 73.4676 67.3117 72.1811C68.1753 73.3575 70.0141 75.126 72.7786 74.0678C72.1497 74.2449 69.5831 74.62 67.2718 69.7788L67.267 69.8012C66.8057 65.9656 64.6206 64.2209 64.6206 64.2209C66.8856 68.6759 66.3636 72.628 65.6262 75.0159C65.6118 75.0335 65.1537 75.6703 64.2279 75.6863C64.7866 74.2705 65.1042 72.7812 65.1042 71.2409C65.1042 62.2688 54.9637 54.9727 42.5007 54.9727C30.0378 54.9727 19.8973 62.2688 19.8973 71.2409C19.8973 72.7812 20.2149 74.2705 20.7736 75.6863C19.8478 75.6703 19.3881 75.0335 19.3753 75.0159C18.6379 72.628 18.1159 68.6759 20.3809 64.2209C20.3809 64.2209 18.1941 65.9656 17.7344 69.8012L17.728 69.7788C15.42 74.62 12.8517 74.2449 12.2244 74.0678C14.9874 75.126 16.8278 73.3575 17.6897 72.1811C17.7807 73.4676 18.0632 74.9217 18.6139 76.5482H16.1861L18.7927 78.6073H19.7616H22.3729C23.2796 79.8826 24.4112 81.0558 25.7297 82.1093C25.6515 82.154 19.0992 85.9497 14.0728 82.6935C14.0728 82.6935 15.5541 85.7151 20.3745 85.5315L20.3474 85.5379C20.4176 85.5315 20.4735 85.5347 20.5421 85.5283C20.5804 85.5283 20.6171 85.5251 20.6538 85.5219C26.1878 84.9824 28.7704 87.332 28.7704 87.332C27.9627 85.4326 26.3841 84.7574 25.1056 84.5323C25.6611 84.3344 26.2373 84.1077 26.8454 83.8412L26.8518 83.8316C28.1367 84.1492 29.8702 84.842 30.8933 86.3871L39.1727 87.332L39.1073 87.3049C40.2166 87.4246 41.3435 87.5092 42.5007 87.5092C43.658 87.5092 44.7849 87.4246 45.8942 87.3049L45.8288 87.332L54.1065 86.3871C55.1249 84.8563 56.8328 84.1636 58.1177 83.8412C58.7259 84.1077 59.3021 84.3344 59.8576 84.5323C58.579 84.7574 57.002 85.4326 56.1912 87.332C56.1912 87.332 58.7754 84.9824 64.3109 85.5219C64.346 85.5251 64.3843 85.5283 64.4211 85.5283C64.4897 85.5347 64.5456 85.5315 64.6142 85.5379L64.5902 85.5315C69.4059 85.7151 70.8904 82.6935 70.8904 82.6935C65.9566 85.8923 59.5623 82.2993 59.2558 82.1205ZM25.2109 78.6073C24.922 78.2865 24.6475 77.9561 24.3921 77.6193C24.3681 77.5841 24.3426 77.5458 24.3187 77.5091C24.0856 77.1979 23.8653 76.8802 23.669 76.5514C22.6906 74.909 22.1415 73.1196 22.1415 71.2409C22.1415 63.5106 31.2764 57.2185 42.5007 57.2185C53.7251 57.2185 62.86 63.5106 62.86 71.2409C62.86 73.1196 62.3109 74.9121 61.3324 76.5514C61.1361 76.8802 60.9158 77.1979 60.6844 77.5091C60.6589 77.5458 60.6365 77.5841 60.6094 77.6193C60.3524 77.9561 60.0794 78.2865 59.7905 78.6073C56.1959 82.593 49.8001 85.2634 42.5007 85.2634C35.2014 85.2634 28.8055 82.593 25.2109 78.6073ZM78.3014 24.5304C77.7204 26.9853 78.5664 29.0938 79.7156 30.7028C77.9854 40.4235 79.6693 63.1387 79.888 67.1691C80.6893 66.1507 81.4188 64.5035 81.8114 63.525C81.73 61.4228 81.6741 59.1531 81.6454 56.8003C82.5872 58.3454 83.0022 59.9959 82.8473 61.7341C82.6734 63.7389 81.7923 65.6767 80.6494 67.4085C80.5919 67.4931 80.5425 67.5697 80.4898 67.6479C80.3334 67.873 80.1737 68.0965 80.0125 68.3199C79.9774 68.3662 79.9567 68.3918 79.9567 68.3918V68.3949C77.4395 71.7725 74.1737 74.1587 73.9295 74.3375C72.6877 74.9904 71.4618 75.7517 70.2694 76.5482H70.2519L69.9869 76.7382C69.1569 77.3016 68.3524 77.8858 67.5799 78.4732L67.3931 78.6073C67.3931 78.6073 65.3357 80.4461 66.0204 81.6656C66.7068 82.8819 70.8265 82.6009 72.8553 79.98C72.8553 79.98 70.8281 81.8204 68.611 80.7909C67.631 80.3344 68.3892 79.4501 69.5368 78.6073H69.9295H71.8656H82.8537L82.7308 77.466C82.7244 77.3878 82.5712 75.9225 82.3844 73.4947C82.6797 73.4915 82.9766 73.4979 83.2671 73.5219H83.2703C83.4108 73.5346 83.5385 73.5586 83.6694 73.5809C83.8513 73.6512 83.9902 73.798 83.8146 74.1109C83.4619 74.7382 83.0325 75.0095 83.0325 75.0095C83.0325 75.0095 84.1642 74.893 84.8282 73.798C85.4922 72.7078 84.1243 71.8411 82.5632 71.9672L82.5664 71.9704C82.4754 71.9704 82.3717 71.9784 82.2743 71.9848C82.1913 70.8148 82.1067 69.4931 82.0269 68.0422C83.2224 66.1779 84.145 64.0837 84.3398 61.8682C84.584 59.1164 83.6614 56.5673 81.6311 54.2815C81.6311 53.8761 81.6342 53.4643 81.6358 53.0525C81.6358 53.0525 83.0868 38.0037 84.4148 33.686L84.5856 33.1338L84.094 32.8305C84.0684 32.8145 82.916 32.0835 81.7827 30.8736C81.7827 30.8736 80.5919 29.8089 80.1498 28.524C79.6614 27.4737 79.4172 26.2846 79.7156 24.9948C79.7667 24.8815 80.3206 23.5727 80.8856 21.8855L81.1554 24.8783C80.8729 25.7067 80.635 26.5894 80.4084 27.4929C80.726 28.1345 81.315 29.1529 82.0508 29.6174C82.3637 28.1026 82.7196 26.6453 83.173 25.3412L83.2464 25.1337L81.9503 10.6819C81.9678 12.8399 80.4962 17.5343 80.4962 17.5343C80.0077 20.4872 78.3525 24.3819 78.3014 24.5304ZM80.0987 70.6216C80.1338 71.1627 80.1721 71.6895 80.2057 72.1779C79.5879 72.2497 78.9606 72.3662 78.3158 72.5402C78.8968 71.9672 79.5017 71.3191 80.0987 70.6216ZM73.0516 76.5482C75.5273 75.059 78.07 73.9177 80.3174 73.6496C80.4164 74.8627 80.5057 75.8555 80.5712 76.5482H73.0516ZM81.4874 32.6884C82.0109 33.1689 82.4914 33.5408 82.8282 33.7818C81.8864 37.1944 81.1346 46.1586 80.5712 52.098C80.5169 47.3988 80.667 38.2543 81.4874 32.6884ZM4.74632 14.8719C3.71998 12.3994 3.23474 7.14957 3.23474 7.14957L3.27465 6.70583L3.93227 6.49992C5.47578 6.02107 9.87485 4.09608 9.87485 1.61243V0.581291H75.125V1.61243C75.125 4.09608 79.5257 6.02107 81.0692 6.49992L81.7268 6.70583L81.7667 7.14957C81.7667 7.14957 81.2815 12.3994 80.2567 14.8719L79.797 8.24136C78.0955 7.61884 73.955 5.79601 73.1889 2.64196H11.8126C11.0464 5.79601 6.90596 7.61884 5.20443 8.24136L4.74632 14.8719ZM0.17168 73.798C0.83569 74.893 1.96898 75.0095 1.96898 75.0095C1.96898 75.0095 1.5396 74.7382 1.18685 74.1109C1.01127 73.798 1.15173 73.6512 1.3321 73.5809C1.46298 73.5586 1.59227 73.5346 1.73114 73.5219H1.73434C2.02484 73.4979 2.32173 73.4915 2.61702 73.4947C2.42867 75.9225 2.27704 77.3878 2.27065 77.466L2.14775 78.6073H13.1103H15.072H15.4248C16.574 79.4501 17.3322 80.3344 16.3521 80.7909C14.1335 81.8204 12.1079 79.98 12.1079 79.98C14.1366 82.6009 18.2548 82.8819 18.9427 81.6656C19.6291 80.4461 17.5716 78.6073 17.5716 78.6073H17.5988H17.6083L17.4216 78.4732C16.649 77.8858 15.8446 77.3016 15.0145 76.7382L14.7496 76.5482H14.7304C13.5397 75.7517 12.3138 74.9904 11.072 74.3375C10.8278 74.1587 7.56198 71.7725 5.04481 68.3949V68.3918C5.04481 68.3918 5.02246 68.3662 4.99054 68.3199C4.82613 68.0965 4.66811 67.873 4.51169 67.6479C4.45901 67.5697 4.40953 67.4931 4.35207 67.4085C3.20921 65.6767 2.32812 63.7389 2.15413 61.7341C1.99931 59.9959 2.41431 58.3454 3.35605 56.8003C3.32732 59.1531 3.27146 61.4228 3.19005 63.525C3.58271 64.5035 4.31217 66.1507 5.11345 67.1691C5.33213 63.1387 7.01449 40.4235 5.28583 30.7028C6.43508 29.0938 7.27946 26.9853 6.70324 24.5304C6.65057 24.3819 4.99373 20.4872 4.5053 17.5343C4.5053 17.5343 3.03203 12.8399 3.05118 10.6819L1.75669 25.1337L1.82691 25.3412C2.28183 26.6453 2.63778 28.1026 2.95382 29.6174C3.68646 29.1529 4.27546 28.1345 4.59309 27.4929C4.36803 26.5894 4.1286 25.7067 3.84608 24.8783L4.11584 21.8855C4.68088 23.5727 5.23795 24.8815 5.28583 24.9948C5.58432 26.2846 5.3401 27.4737 4.85167 28.524C4.40953 29.8089 3.21879 30.8736 3.21879 30.8736C2.08709 32.0835 0.933055 32.8145 0.907516 32.8305L0.415895 33.1338L0.586684 33.686C1.9163 38.0037 3.36404 53.0525 3.36404 53.0525C3.36723 53.4643 3.37042 53.8761 3.37042 54.2815C1.34008 56.5673 0.41749 59.1164 0.661705 61.8682C0.856439 64.0837 1.78063 66.1779 2.97457 68.0422C2.89316 69.4931 2.81016 70.8148 2.72716 71.9848C2.6282 71.9784 2.52604 71.9704 2.43506 71.9704L2.43825 71.9672C0.877188 71.8411 -0.49233 72.7078 0.17168 73.798ZM4.90435 70.6216C5.49972 71.3191 6.10627 71.9672 6.68568 72.5402C6.04082 72.3662 5.41353 72.2497 4.79581 72.1779C4.82933 71.6895 4.86764 71.1627 4.90435 70.6216ZM4.68408 73.6496C6.93149 73.9177 9.47421 75.059 11.9499 76.5482H4.43028C4.49573 75.8555 4.58511 74.8627 4.68408 73.6496ZM2.17328 33.7818C2.51008 33.5408 2.99053 33.1689 3.51407 32.6884C4.33451 38.2543 4.48455 47.3988 4.43188 52.098C3.86843 46.1586 3.11663 37.1944 2.17328 33.7818Z" fill="#39394E"/>
</g>
</svg>
