<svg width="64" height="74" viewBox="0 0 64 74" fill="none" xmlns="http://www.w3.org/2000/svg">
<g id="Group 6">
<path id="Vector" d="M54.3005 7.9349L32.002 1.13355L9.69956 7.9349C9.69956 7.9349 8.79645 19.4948 0.914307 21.0885V36.8766C0.914307 36.8766 8.2928 66.1382 32.002 72.4478C55.7086 66.1382 63.0857 36.8766 63.0857 36.8766V21.0885C55.2023 19.4948 54.3005 7.9349 54.3005 7.9349Z" fill="#202032"/>
<path id="Vector_2" d="M63.212 20.1679C56.1697 18.747 55.2377 8.06616 55.2297 7.9586L55.1737 7.27735L32.0013 0.219232L8.8263 7.27735L8.7703 7.9586C8.7623 8.06616 7.82901 18.747 0.787967 20.1679L0 20.3259V36.8803L0.0293313 37.13C0.105328 37.4274 7.81434 66.9334 31.7547 73.2957L32.0013 73.3621L32.2453 73.2957C56.1857 66.9334 63.8947 37.4274 63.9693 37.13L64 20.3259L63.212 20.1679ZM62.0467 36.7462C61.5041 38.7448 53.8804 65.2987 32.0013 71.2971C10.1196 65.2987 2.4959 38.7448 1.95325 36.7462V21.9341C8.70764 19.97 10.3129 11.3436 10.6436 8.80717L32.0013 2.30281L53.3551 8.80717C53.6844 11.3436 55.291 19.97 62.0467 21.9341V36.7462ZM51.3392 10.9731L51.2752 10.6544L33.4559 5.22565C33.3919 4.45278 32.776 3.83926 32.0027 3.83926C31.2267 3.83926 30.6107 4.45145 30.5467 5.22565L12.7248 10.6557L12.6608 10.9744C12.1435 13.5679 10.4609 19.6181 5.7211 22.7587C5.46777 22.5529 5.16245 22.4108 4.81313 22.4108C3.99583 22.4108 3.33453 23.0881 3.33453 23.9234C3.33453 24.5661 3.72784 25.1079 4.27982 25.3257V36.3358L4.30115 36.4899C5.06245 39.1179 12.1355 61.8354 30.5361 68.3411C30.5801 69.1392 31.2107 69.7739 32.0027 69.7739C32.8013 69.7739 33.4453 69.1206 33.4706 68.3092C40.9996 65.6546 47.4927 60.1117 52.7671 51.7402C57.087 44.8799 59.1655 38.3344 59.6975 36.4925L59.7175 25.327C60.2708 25.1092 60.6668 24.5674 60.6668 23.9234C60.6668 23.0881 60.0042 22.4108 59.1869 22.4108C58.8375 22.4108 58.5296 22.5529 58.2776 22.7587C53.5391 19.6181 51.8552 13.5679 51.3392 10.9731ZM33.1253 67.3066C32.852 66.9746 32.46 66.7488 32.0027 66.7488C31.5427 66.7488 31.1494 66.9746 30.8787 67.3079C13.1488 61.0346 6.19441 39.1551 5.34511 36.2562V25.327C5.89975 25.1079 6.29307 24.5674 6.29307 23.9234C6.29307 23.8477 6.26107 23.7813 6.24907 23.7082C11.1755 20.4773 13.0195 14.4112 13.6381 11.5122L30.8534 6.27076C31.1267 6.624 31.528 6.86436 32.0027 6.86436C32.4746 6.86436 32.8773 6.624 33.148 6.27076L50.3606 11.5122C50.9792 14.4098 52.8245 20.4773 57.7496 23.7096C57.7389 23.7839 57.7069 23.8477 57.7069 23.9234C57.7069 24.5674 58.1002 25.1079 58.6549 25.3257V36.2575C57.8056 39.1564 50.8499 61.0346 33.1253 67.3066Z" fill="#39394E"/>
</g>
</svg>
