<svg width="16" height="48" viewBox="0 0 16 48" fill="none" xmlns="http://www.w3.org/2000/svg">
<g id="Group 28">
<path id="Vector 4" d="M6.90747 1H15.4075V47H6.90747L0.407471 41.5V6.5L6.90747 1Z" fill="#FF9A9A"/>
<path id="Subtract" fill-rule="evenodd" clip-rule="evenodd" d="M15.4075 48H6.68403L3.05176e-05 41.4308V6.57051L6.68403 0H15.4075V2H13.6027C10.1174 2.82836 7.32803 4.51665 5.23203 7.40936V40.5592C7.05337 43.0692 9.72536 45.0524 13.636 46H15.4075V48ZM1.83336 12.3965V7.3176L7.44403 2H11.0534C8.00269 3.26089 5.83337 5.11695 4.29337 7.38052H4.23203V7.47358C3.14937 9.08704 2.37736 10.7949 1.83336 12.3965ZM4.04107 9.29344C4.10506 9.18499 4.16908 9.07651 4.23203 8.96646V39.0139C2.95737 36.7962 2.23736 34.4841 1.83336 32.6256V15.3076C2.16136 13.7819 2.69603 11.9588 3.57203 10.1435C3.71645 9.84355 3.8787 9.5686 4.04107 9.29344ZM11.0534 46H7.44403L1.83336 40.6837V35.6035C2.37736 37.2051 3.14937 38.913 4.23203 40.5264V40.6195H4.29337C5.83337 42.883 8.00269 44.7391 11.0534 46Z" fill="#3C3C48"/>
</g>
</svg>
