<svg width="90" height="96" viewBox="0 0 90 96" fill="none" xmlns="http://www.w3.org/2000/svg">
<g id="Group 1">
<ellipse id="Ellipse 1" cx="44.8777" cy="48" rx="41.4072" ry="42" fill="#1C1C22"/>
<path id="Intersect" fill-rule="evenodd" clip-rule="evenodd" d="M82.9837 24.8237C87.1347 31.58 89.5385 39.5084 89.5385 48.0012C89.5385 56.4607 87.1535 64.3603 83.0324 71.0994C80.5582 75.0218 77.4736 78.666 73.8756 81.9559H73.7575C73.054 82.5583 72.3338 83.1412 71.5913 83.6964L65.6265 87.5132C60.3208 90.3169 54.3949 92.0851 48.1076 92.5515C48.4552 90.8165 49.4535 88.7346 51.7504 86.4806C60.2485 84.9455 67.7788 80.654 73.435 74.5998C70.0172 74.6927 66.8367 75.5638 63.6519 76.436L63.5048 76.4763C52.6152 79.4631 44.2534 95.3162 44.2367 95.3523C44.0198 95.8853 43.4108 96.1407 42.8797 95.9214C42.3458 95.7049 42.0955 95.0942 42.3068 94.5668C42.3597 94.4418 42.6739 93.7062 43.2468 92.6014C36.8899 92.3794 30.8667 90.8554 25.4414 88.2516C30.6359 88.8623 38.7642 88.4098 46.5281 86.872C46.6561 86.872 46.7534 86.8745 46.8544 86.8772L46.8674 86.8775C47.2761 86.3251 47.7183 85.7672 48.1882 85.2009C12.7722 93.462 3.56219 75.613 3.56219 75.613C6.67109 78.7997 10.2972 81.0732 14.1347 82.6582C15.3054 82.9746 16.4706 83.2356 17.6329 83.4687C6.93248 75.2993 0 62.4553 0 48.0012C0 33.5471 6.93248 20.7031 17.6329 12.5309C16.4706 12.764 15.3054 13.025 14.1347 13.3414C10.2972 14.9292 6.67109 17.1999 3.56219 20.3866C3.56219 20.3866 12.7722 2.54045 48.1882 10.7987C47.7183 10.2324 47.2761 9.67448 46.8674 9.12485C46.7617 9.12763 46.6616 9.13041 46.5281 9.13041C38.7642 7.58979 30.6359 7.13732 25.4414 7.75079C30.8667 5.14423 36.8899 3.62027 43.2468 3.3982C42.6739 2.29617 42.3597 1.55778 42.3068 1.43286C42.0955 0.908219 42.3458 0.294756 42.8797 0.0782366C43.4108 -0.141059 44.0198 0.11709 44.2367 0.647285C44.2534 0.686147 52.6152 16.5393 63.5048 19.5233L63.6523 19.5638C66.837 20.4359 70.0173 21.3069 73.435 21.4026C67.7788 15.3456 60.2485 11.0541 51.7504 9.51903C49.4535 7.26501 48.4552 5.18587 48.1076 3.44816C54.3949 3.91729 60.3208 5.68553 65.6265 8.4864L71.5913 12.3033C72.3338 12.8584 73.054 13.4414 73.7575 14.0437H73.8752C77.4498 17.3122 80.5177 20.9304 82.9837 24.8237ZM62.7456 21.4609C58.7607 19.9508 55.4516 17.7745 52.7181 15.4095C48.8417 14.0548 40.758 11.7009 30.9918 11.4399C16.1647 17.0223 5.56158 31.2681 5.56158 48.0012C5.56158 64.7315 16.1647 78.9801 30.9918 84.5624C40.758 84.2987 48.8417 81.9448 52.7181 80.5901C55.4516 78.2251 58.7607 76.0488 62.7456 74.5387C66.6804 73.048 70.8655 72.404 75.2591 72.5151C80.6956 65.8058 83.9769 57.2866 83.9769 48.0012C83.9769 38.7131 80.6956 30.1966 75.2591 23.4873C70.8655 23.5984 66.6804 22.9516 62.7456 21.4609Z" fill="#3C3C48"/>
</g>
</svg>
