<svg width="16" height="48" viewBox="0 0 16 48" fill="none" xmlns="http://www.w3.org/2000/svg">
<g id="Group 28">
<path id="Vector 4" d="M6.90744 1H15.4074V47H6.90744L0.40744 41.5V6.5L6.90744 1Z" fill="#FFB800"/>
<path id="Subtract" fill-rule="evenodd" clip-rule="evenodd" d="M15.4074 48H6.684L0 41.4308V6.57051L6.684 0H15.4074V2H13.6027C10.1173 2.82836 7.328 4.51665 5.232 7.40936V40.5592C7.05334 43.0692 9.72533 45.0524 13.636 46H15.4074V48ZM1.83333 12.3965V7.3176L7.444 2H11.0533C8.00266 3.26089 5.83334 5.11695 4.29333 7.38052H4.232V7.47358C3.14934 9.08704 2.37733 10.7949 1.83333 12.3965ZM4.04104 9.29344C4.10503 9.18499 4.16905 9.07651 4.232 8.96646V39.0139C2.95734 36.7962 2.23733 34.4841 1.83333 32.6256V15.3076C2.16133 13.7819 2.696 11.9588 3.572 10.1435C3.71642 9.84355 3.87867 9.5686 4.04104 9.29344ZM11.0533 46H7.444L1.83333 40.6837V35.6035C2.37733 37.2051 3.14934 38.913 4.232 40.5264V40.6195H4.29333C5.83334 42.883 8.00266 44.7391 11.0533 46Z" fill="#1C1C22"/>
</g>
</svg>
