<svg width="20" height="61" viewBox="0 0 20 61" fill="none" xmlns="http://www.w3.org/2000/svg">
<g id="vrg-character-link-decoration-left">
<path id="Subtract" d="M19.1848 2H0.684814C0.684814 2 13.1848 15.5 13.1848 30.75C13.1848 46 0.684814 59.5 0.684814 59.5H19.1848V2Z" fill="#1C1C22"/>
<g id="Subtract_2">
<path d="M19.1848 0H0.184877C1.45801 1.11999 2.66027 2.31863 3.78404 3.58835C3.6233 3.37803 3.46103 3.17949 3.2973 2.99995H14.9606L14.7591 3.0832C11.6782 4.35617 8.71057 5.58238 5.83489 6.10041C6.24968 6.65197 6.6507 7.21446 7.03746 7.78737C10.9981 6.98188 14.8804 5.1418 19.1848 2.99995L19.1848 0Z" fill="#3C3C48"/>
<path d="M19.1848 58L18.5459 57.6818C14.4937 55.6624 10.8003 53.8219 7.03616 53.0528C6.64976 53.6252 6.24911 54.1871 5.83474 54.7381C8.28552 55.1886 10.8031 56.2507 13.4006 57.3465C13.9174 57.5645 14.4374 57.7838 14.9606 58H3.2973C3.61866 57.6486 3.93443 57.1969 4.24396 56.7212C2.93695 58.2502 1.51807 59.6807 0 61H19.1848V58Z" fill="#3C3C48"/>
</g>
</g>
</svg>
