<svg width="29" height="61" viewBox="0 0 29 61" fill="none" xmlns="http://www.w3.org/2000/svg">
<g id="vrg-character-link-decoration-right">
<path id="Subtract" d="M0.73877 59.5H16.7388L26.7388 48V13L16.7388 2H0.73877V59.5Z" fill="#1C1C22"/>
<path id="Subtract_2" fill-rule="evenodd" clip-rule="evenodd" d="M0.7388 61L0.73877 58C6.65417 55.7793 21.9857 48.5659 25.6099 39.0492V21.7888C21.9857 12.2745 6.65417 5.22309 0.73877 2.99995L0.7388 0H18.0512L18.5439 0.835533C19.9606 3.23523 24.4199 9.83255 28.0244 11.5434L29 12.0035V48.8345L28.0244 49.2945C24.4199 51.0054 19.9606 57.6027 18.5439 60.0024L17.9422 61H0.7388ZM25.6124 46.7332C21.6834 49.1627 17.8477 55.2797 16.3179 57.7193C16.2553 57.8192 16.1966 57.9129 16.1418 58H5.55026C11.9338 55.2297 21.1481 49.7422 25.6124 43.0404V46.7332ZM16.1418 2.99995L16.1659 3.03826C17.5793 5.28569 21.5459 11.5927 25.6124 14.1048V17.7976C21.1481 11.0958 11.9338 5.77266 5.55026 2.99995H16.1418Z" fill="#FFB800"/>
</g>
</svg>
