<svg width="81" height="92" viewBox="0 0 81 92" fill="none" xmlns="http://www.w3.org/2000/svg">
<g id="Group 6">
<path id="Vector" d="M68.4373 9.54971L40.2525 0.958321L12.0627 9.54971C12.0627 9.54971 10.9212 24.152 0.958313 26.1652V46.1086C0.958313 46.1086 10.2846 83.0714 40.2525 91.0417C70.2171 83.0714 79.5416 46.1086 79.5416 46.1086V26.1652C69.5771 24.152 68.4373 9.54971 68.4373 9.54971Z" fill="#1C1C22"/>
<path id="Vector_2" d="M79.5089 25.0917C70.6509 23.3044 69.4787 9.86996 69.4686 9.73467L69.3982 8.87779L40.2517 0L11.1018 8.87779L11.0314 9.73467C11.0213 9.86996 9.84742 23.3044 0.991114 25.0917L0 25.2904V46.1127L0.0368932 46.4268C0.132483 46.8009 9.82898 83.9139 39.9414 91.9165L40.2517 92L40.5586 91.9165C70.671 83.9139 80.3675 46.8009 80.4614 46.4268L80.5 25.2904L79.5089 25.0917ZM78.0432 45.944C77.3606 48.4579 67.7715 81.8578 40.2517 89.4026C12.7285 81.8578 3.13937 48.4579 2.45683 45.944V27.3132C10.9526 24.8428 12.9717 13.9923 13.3876 10.802L40.2517 2.62074L67.1107 10.802C67.5249 13.9923 69.5457 24.8428 78.0432 27.3132V45.944ZM64.5751 13.5263L64.4946 13.1254L42.0813 6.29713C42.0008 5.325 41.226 4.55331 40.2534 4.55331C39.2773 4.55331 38.5026 5.32333 38.4221 6.29713L16.0054 13.1271L15.9249 13.528C15.2742 16.7901 13.1578 24.4002 7.19607 28.3505C6.87743 28.0916 6.4934 27.9128 6.05402 27.9128C5.02601 27.9128 4.19421 28.7647 4.19421 29.8154C4.19421 30.6238 4.68893 31.3053 5.38321 31.5792V45.4279L5.41004 45.6217C6.36762 48.9272 15.2642 77.5016 38.4086 85.6845C38.464 86.6884 39.2572 87.4868 40.2534 87.4868C41.2579 87.4868 42.0679 86.665 42.0997 85.6444C51.5698 82.3054 59.7369 75.3335 66.3712 64.8037C71.8047 56.1748 74.4192 47.9418 75.0883 45.625L75.1134 31.5809C75.8094 31.307 76.3075 30.6255 76.3075 29.8154C76.3075 28.7647 75.474 27.9128 74.446 27.9128C74.0066 27.9128 73.6192 28.0916 73.3023 28.3505C67.3422 24.4002 65.2241 16.7901 64.5751 13.5263ZM41.6654 84.3833C41.3216 83.9657 40.8286 83.6818 40.2534 83.6818C39.6748 83.6818 39.1801 83.9657 38.8396 84.385C16.5387 76.4943 7.7914 48.974 6.72315 45.3277V31.5809C7.42078 31.3053 7.9155 30.6255 7.9155 29.8154C7.9155 29.7201 7.87526 29.6366 7.86016 29.5448C14.0567 25.4809 16.376 17.8508 17.1542 14.2045L38.8078 7.61168C39.1516 8.05599 39.6563 8.35832 40.2534 8.35832C40.847 8.35832 41.3535 8.05599 41.6939 7.61168L63.3442 14.2045C64.1223 17.8491 66.4433 25.4809 72.6382 29.5464C72.6247 29.64 72.5845 29.7201 72.5845 29.8154C72.5845 30.6255 73.0792 31.3053 73.7769 31.5792V45.3294C72.7086 48.9757 63.9596 76.4943 41.6654 84.3833Z" fill="#3C3C48"/>
</g>
</svg>
