<svg width="80" height="86" viewBox="0 0 80 86" fill="none" xmlns="http://www.w3.org/2000/svg">
<path id="Intersect" fill-rule="evenodd" clip-rule="evenodd" d="M74.1436 22.1296C77.8523 28.1527 80 35.2207 80 42.7918C80 50.3332 77.8691 57.3755 74.187 63.3832C71.9764 66.8799 69.2204 70.1286 66.0057 73.0614H65.9002C65.2716 73.5984 64.6281 74.1181 63.9647 74.613L58.6354 78.0156C53.8948 80.515 48.6003 82.0914 42.9827 82.5071C43.2933 80.9605 44.1852 79.1045 46.2375 77.0951C53.8303 75.7266 60.5584 71.9008 65.612 66.5037C62.5583 66.5865 59.7166 67.363 56.8711 68.1406L56.7396 68.1765C47.0102 70.8392 39.5391 84.9718 39.5242 85.004C39.3304 85.4791 38.7863 85.7068 38.3117 85.5113C37.8347 85.3183 37.6111 84.7739 37.7999 84.3037C37.8472 84.1923 38.1279 83.5366 38.6397 82.5516C32.96 82.3537 27.5785 80.9951 22.7311 78.6739C27.3723 79.2183 34.6346 78.815 41.5715 77.444C41.6859 77.444 41.7728 77.4463 41.863 77.4486L41.8746 77.4489C42.2398 76.9565 42.6349 76.4591 43.0548 75.9543C11.4116 83.3188 3.18271 67.4069 3.18271 67.4069C5.96042 70.2478 9.20028 72.2745 12.629 73.6875C13.6749 73.9696 14.716 74.2022 15.7545 74.4101C6.19397 67.1273 0 55.6772 0 42.7918C0 29.9064 6.19397 18.4562 15.7545 11.1709C14.716 11.3788 13.6749 11.6114 12.629 11.8935C9.20028 13.309 5.96042 15.3333 3.18271 18.1741C3.18271 18.1741 11.4116 2.26474 43.0548 9.62676C42.6349 9.12194 42.2398 8.62453 41.8746 8.13456C41.7802 8.13703 41.6907 8.13951 41.5715 8.13951C34.6346 6.76609 27.3723 6.36273 22.7311 6.90962C27.5785 4.58594 32.96 3.22737 38.6397 3.0294C38.1279 2.04697 37.8472 1.38872 37.7999 1.27736C37.6111 0.809652 37.8347 0.262767 38.3117 0.0697458C38.7863 -0.12575 39.3304 0.104382 39.5242 0.577037C39.5391 0.611681 47.0102 14.7443 56.7396 17.4045L56.8715 17.4405C59.7169 18.2181 62.5584 18.9946 65.612 19.0799C60.5584 13.6802 53.8303 9.85443 46.2375 8.48596C44.1852 6.47656 43.2933 4.62306 42.9827 3.07394C48.6003 3.49216 53.8948 5.06849 58.6354 7.5654L63.9647 10.968C64.6281 11.4629 65.2716 11.9826 65.9002 12.5196H66.0053C69.1992 15.4333 71.9403 18.6588 74.1436 22.1296ZM56.0614 19.1318C52.501 17.7856 49.5444 15.8455 47.1021 13.7371C43.6386 12.5295 36.4161 10.431 27.6903 10.1984C14.4427 15.1749 4.96911 27.8747 4.96911 42.7918C4.96911 57.7063 14.4427 70.4086 27.6903 75.3851C36.4161 75.15 43.6386 73.0515 47.1021 71.8439C49.5444 69.7355 52.501 67.7954 56.0614 66.4492C59.577 65.1203 63.3163 64.5462 67.2418 64.6452C72.0992 58.664 75.0309 51.0694 75.0309 42.7918C75.0309 34.5116 72.0992 26.9195 67.2418 20.9383C63.3163 21.0373 59.577 20.4607 56.0614 19.1318Z" fill="#FFB800"/>
</svg>
