<svg width="20" height="42" viewBox="0 0 20 42" fill="none" xmlns="http://www.w3.org/2000/svg">
<g id="Group 26">
<path id="Subtract" fill-rule="evenodd" clip-rule="evenodd" d="M19.944 41.952H5.92399L5.65733 41.504C4.892 40.2187 2.47732 36.68 0.526655 35.764L3.8147e-06 35.516L0.00266838 6.436L0.527998 6.188C2.47866 5.272 4.89333 1.732 5.66 0.446664L5.92666 0H19.944C19.944 1.03632 19.944 32.4418 19.944 41.952Z" fill="#1C1C22"/>
<path id="Subtract_2" fill-rule="evenodd" clip-rule="evenodd" d="M20 42H5.92399L5.65733 41.504C4.892 40.2187 2.47732 36.68 0.526655 35.764L3.8147e-06 35.516L0.00266838 6.436L0.527998 6.188C2.47866 5.272 4.89333 1.732 5.66 0.446664L5.92666 0H20V2H15.4C12.1987 3.18933 3.79733 6.57466 1.836 11.6787L1.83334 30.2693C3.79467 35.3733 12.2 38.8107 15.4 40H20V42ZM12.6853 40H6.95465C6.20132 38.8147 4.04534 35.7453 1.83334 34.3893V32.4093C4.248 36.0027 9.23066 38.5147 12.6853 40ZM1.836 9.54V7.56133C4.04667 6.20667 6.20399 3.18533 6.95732 2H12.6853C9.23066 3.48533 4.25067 5.94666 1.836 9.54Z" fill="#3C3C48"/>
</g>
</svg>
