<svg width="78" height="86" viewBox="0 0 78 86" fill="none" xmlns="http://www.w3.org/2000/svg">
<g id="Group 11">
<path id="Vector" d="M71.54 9.16395C70.4904 8.30308 69.4892 7.39496 68.54 6.44302C65.3612 4.37604 61.8856 2.71296 58.21 1.5H18.36C17.836 1.6436 17.3246 1.82247 16.83 2.03512C16.4146 2.45196 15.9158 2.79358 15.36 3.04186C11.282 4.93879 7.9962 7.98894 6 11.7307C6.12246 12.2028 6.16295 12.6894 6.12 13.1728C6.24587 13.5198 6.32642 13.879 6.36 14.243C7.36 25.7798 6.93 41.6793 6.76 53.2433C6.67 59.1386 6.76 65.034 6.71 70.9112C6.71 72.7251 6.6 74.6116 6.49 76.4619C7.30277 77.443 8.23537 78.3375 9.27 79.1284C11.5857 80.7144 14.0033 82.1742 16.51 83.5H62L62.07 83.4456C65.7013 81.4552 68.8649 78.8356 71.38 75.7363C71.51 70.2944 72.03 64.8526 71.74 59.4107C70.9181 43.9879 73.5851 24.5981 71.54 9.16395Z" fill="#1C1C22"/>
<path id="Vector_2" d="M69 0.5H9L0 9.55V76.5L9 85.5H69L78 76.5V9.55L69 0.5ZM75.55 10.58V17.58C74.7659 15.1901 73.6769 12.9113 72.31 10.8V10.67H72.23C70.0192 7.25572 66.8404 4.5783 63.1 2.98H68L75.55 10.58ZM59.6 83.02H18.36C13.7636 81.9371 9.73519 79.1814 7.06 75.29V10.75C9.75623 6.85396 13.7933 4.08781 18.4 2.98H59.64C64.2388 4.05751 68.269 6.81446 70.94 10.71V75.25C68.2438 79.146 64.2067 81.9122 59.6 83.02ZM2.47 21.68C3.10776 18.6023 4.1997 15.6365 5.71 12.88V73.14C5.41 72.61 5.09 72.14 4.82 71.52C3.76879 69.2471 2.98035 66.8617 2.47 64.41V21.68ZM72.29 12.86C72.59 13.39 72.91 13.86 73.18 14.48C74.2312 16.7529 75.0196 19.1383 75.53 21.59V64.31C74.8941 67.3914 73.802 70.3608 72.29 73.12V12.86ZM10.05 2.98H14.92C11.1796 4.5783 8.00083 7.25572 5.79 10.67H5.71V10.8C4.34308 12.9113 3.2541 15.1901 2.47 17.58V10.58L10.05 2.98ZM2.47 75.42V68.42C3.25606 70.8091 4.34492 73.0876 5.71 75.2V75.33H5.79C8.00083 78.7443 11.1796 81.4217 14.92 83.02H10.05L2.47 75.42ZM68 83.02H63.08C66.8204 81.4217 69.9992 78.7443 72.21 75.33H72.29V75.2C73.6551 73.0876 74.7439 70.8091 75.53 68.42V75.42L68 83.02Z" fill="#3C3C48"/>
</g>
</svg>
