<svg width="20" height="21" viewBox="0 0 20 21" fill="none" xmlns="http://www.w3.org/2000/svg">
<g id="Group 26">
<path id="Subtract" fill-rule="evenodd" clip-rule="evenodd" d="M19.9441 20.988H0.0014286L9.53674e-05 6.43603L0.526747 6.18803C2.47741 5.27203 4.89209 1.73336 5.65742 0.448029L5.92409 3.05176e-05H19.9441V20.988Z" fill="#1C1C22"/>
<path id="Subtract_2" fill-rule="evenodd" clip-rule="evenodd" d="M0.0013299 21L0 6.484L0.526651 6.236C2.47732 5.32 4.89199 1.78133 5.65733 0.496002L5.92399 0H20V2H15.4C12.2 3.18933 3.95866 6.66666 1.99733 11.7707L1.99865 21H0.0013299ZM6.95465 2H12.6853C9.23066 3.48534 4.412 6.03733 1.99733 9.63066V7.65066C4.20933 6.29466 6.20132 3.18533 6.95465 2Z" fill="#3C3C48"/>
</g>
</svg>
